<mxfile host="app.diagrams.net" agent="Mozilla/5.0 (Windows NT 10.0; Win64; x64) AppleWebKit/537.36 (KHTML, like Gecko) Chrome/131.0.0.0 Safari/537.36" version="25.0.1">
  <diagram name="Page-1" id="P2y_nE5mL8NQML2TxUzt">
    <mxGraphModel dx="1050" dy="522" grid="1" gridSize="10" guides="1" tooltips="1" connect="1" arrows="1" fold="1" page="1" pageScale="1" pageWidth="850" pageHeight="1100" math="0" shadow="0">
      <root>
        <mxCell id="0" />
        <mxCell id="1" parent="0" />
        <mxCell id="vw6bsj8kWLU3OOpr5nJO-19" value="Library Assistant" style="shape=umlActor;verticalLabelPosition=bottom;verticalAlign=top;html=1;" vertex="1" parent="1">
          <mxGeometry x="185" y="199" width="30" height="60" as="geometry" />
        </mxCell>
        <mxCell id="vw6bsj8kWLU3OOpr5nJO-20" value="" style="endArrow=none;html=1;rounded=0;strokeWidth=6;" edge="1" parent="1">
          <mxGeometry width="50" height="50" relative="1" as="geometry">
            <mxPoint x="200" y="590" as="sourcePoint" />
            <mxPoint x="200" y="280" as="targetPoint" />
          </mxGeometry>
        </mxCell>
        <mxCell id="vw6bsj8kWLU3OOpr5nJO-22" value="&amp;lt;&amp;lt;boundary&amp;gt;&amp;gt;&lt;div&gt;Check-In Page&lt;/div&gt;" style="rounded=0;whiteSpace=wrap;html=1;" vertex="1" parent="1">
          <mxGeometry x="301" y="220" width="120" height="60" as="geometry" />
        </mxCell>
        <mxCell id="vw6bsj8kWLU3OOpr5nJO-23" value="" style="endArrow=none;html=1;rounded=0;strokeWidth=1;entryX=0.5;entryY=1;entryDx=0;entryDy=0;dashed=1;" edge="1" parent="1" target="vw6bsj8kWLU3OOpr5nJO-22">
          <mxGeometry width="50" height="50" relative="1" as="geometry">
            <mxPoint x="361" y="590" as="sourcePoint" />
            <mxPoint x="210" y="290" as="targetPoint" />
          </mxGeometry>
        </mxCell>
        <mxCell id="vw6bsj8kWLU3OOpr5nJO-24" value="&amp;lt;&amp;lt;control&amp;gt;&amp;gt;&lt;div&gt;Book&lt;/div&gt;" style="rounded=0;whiteSpace=wrap;html=1;" vertex="1" parent="1">
          <mxGeometry x="460" y="220" width="120" height="60" as="geometry" />
        </mxCell>
        <mxCell id="vw6bsj8kWLU3OOpr5nJO-25" value="" style="endArrow=none;html=1;rounded=0;strokeWidth=1;entryX=0.5;entryY=1;entryDx=0;entryDy=0;dashed=1;" edge="1" parent="1" target="vw6bsj8kWLU3OOpr5nJO-24">
          <mxGeometry width="50" height="50" relative="1" as="geometry">
            <mxPoint x="520" y="590" as="sourcePoint" />
            <mxPoint x="369" y="290" as="targetPoint" />
          </mxGeometry>
        </mxCell>
        <mxCell id="vw6bsj8kWLU3OOpr5nJO-26" value="&amp;lt;&amp;lt;entity&amp;gt;&amp;gt;&lt;div&gt;Fine Record&lt;/div&gt;" style="rounded=0;whiteSpace=wrap;html=1;" vertex="1" parent="1">
          <mxGeometry x="680" y="400" width="120" height="60" as="geometry" />
        </mxCell>
        <mxCell id="vw6bsj8kWLU3OOpr5nJO-27" value="" style="endArrow=none;html=1;rounded=0;strokeWidth=1;entryX=0.5;entryY=1;entryDx=0;entryDy=0;dashed=1;" edge="1" parent="1" target="vw6bsj8kWLU3OOpr5nJO-26">
          <mxGeometry width="50" height="50" relative="1" as="geometry">
            <mxPoint x="740" y="590" as="sourcePoint" />
            <mxPoint x="589" y="470" as="targetPoint" />
          </mxGeometry>
        </mxCell>
        <mxCell id="vw6bsj8kWLU3OOpr5nJO-28" value="" style="endArrow=none;html=1;rounded=0;strokeWidth=6;" edge="1" parent="1">
          <mxGeometry width="50" height="50" relative="1" as="geometry">
            <mxPoint x="360" y="540" as="sourcePoint" />
            <mxPoint x="360" y="300" as="targetPoint" />
          </mxGeometry>
        </mxCell>
        <mxCell id="vw6bsj8kWLU3OOpr5nJO-29" value="" style="endArrow=block;html=1;rounded=0;endFill=1;" edge="1" parent="1">
          <mxGeometry width="50" height="50" relative="1" as="geometry">
            <mxPoint x="200" y="300" as="sourcePoint" />
            <mxPoint x="360" y="300" as="targetPoint" />
          </mxGeometry>
        </mxCell>
        <mxCell id="vw6bsj8kWLU3OOpr5nJO-30" value="keyInID()" style="text;html=1;align=center;verticalAlign=middle;resizable=0;points=[];autosize=1;strokeColor=none;fillColor=none;" vertex="1" parent="1">
          <mxGeometry x="235" y="275" width="70" height="30" as="geometry" />
        </mxCell>
        <mxCell id="vw6bsj8kWLU3OOpr5nJO-31" value="" style="endArrow=none;html=1;rounded=0;strokeWidth=6;" edge="1" parent="1">
          <mxGeometry width="50" height="50" relative="1" as="geometry">
            <mxPoint x="520" y="440" as="sourcePoint" />
            <mxPoint x="519.5" y="320" as="targetPoint" />
          </mxGeometry>
        </mxCell>
        <mxCell id="vw6bsj8kWLU3OOpr5nJO-32" value="" style="endArrow=block;html=1;rounded=0;endFill=1;" edge="1" parent="1">
          <mxGeometry width="50" height="50" relative="1" as="geometry">
            <mxPoint x="360" y="320" as="sourcePoint" />
            <mxPoint x="520" y="320" as="targetPoint" />
          </mxGeometry>
        </mxCell>
        <mxCell id="vw6bsj8kWLU3OOpr5nJO-33" value="retrieveBookDetails()" style="text;html=1;align=center;verticalAlign=middle;resizable=0;points=[];autosize=1;strokeColor=none;fillColor=none;" vertex="1" parent="1">
          <mxGeometry x="370" y="295" width="140" height="30" as="geometry" />
        </mxCell>
        <mxCell id="vw6bsj8kWLU3OOpr5nJO-35" value="" style="endArrow=open;html=1;rounded=0;endFill=0;dashed=1;" edge="1" parent="1">
          <mxGeometry width="50" height="50" relative="1" as="geometry">
            <mxPoint x="520" y="360" as="sourcePoint" />
            <mxPoint x="360" y="360" as="targetPoint" />
          </mxGeometry>
        </mxCell>
        <mxCell id="vw6bsj8kWLU3OOpr5nJO-36" value="displayBookDetails()" style="text;html=1;align=center;verticalAlign=middle;resizable=0;points=[];autosize=1;strokeColor=none;fillColor=none;" vertex="1" parent="1">
          <mxGeometry x="375" y="335" width="130" height="30" as="geometry" />
        </mxCell>
        <mxCell id="vw6bsj8kWLU3OOpr5nJO-37" value="" style="endArrow=open;html=1;rounded=0;endFill=0;dashed=1;entryX=0;entryY=0.5;entryDx=0;entryDy=0;" edge="1" parent="1" target="vw6bsj8kWLU3OOpr5nJO-26">
          <mxGeometry width="50" height="50" relative="1" as="geometry">
            <mxPoint x="520" y="430" as="sourcePoint" />
            <mxPoint x="370" y="370" as="targetPoint" />
          </mxGeometry>
        </mxCell>
        <mxCell id="vw6bsj8kWLU3OOpr5nJO-38" value="createFineRecord()" style="text;html=1;align=center;verticalAlign=middle;resizable=0;points=[];autosize=1;strokeColor=none;fillColor=none;" vertex="1" parent="1">
          <mxGeometry x="533" y="404" width="130" height="30" as="geometry" />
        </mxCell>
        <mxCell id="vw6bsj8kWLU3OOpr5nJO-39" value="" style="endArrow=none;html=1;rounded=0;strokeWidth=6;" edge="1" parent="1">
          <mxGeometry width="50" height="50" relative="1" as="geometry">
            <mxPoint x="740" y="500" as="sourcePoint" />
            <mxPoint x="740" y="480" as="targetPoint" />
          </mxGeometry>
        </mxCell>
        <mxCell id="vw6bsj8kWLU3OOpr5nJO-40" value="" style="endArrow=open;html=1;rounded=0;endFill=0;dashed=1;" edge="1" parent="1">
          <mxGeometry width="50" height="50" relative="1" as="geometry">
            <mxPoint x="740" y="490" as="sourcePoint" />
            <mxPoint x="360" y="490" as="targetPoint" />
          </mxGeometry>
        </mxCell>
        <mxCell id="vw6bsj8kWLU3OOpr5nJO-41" value="displayFineRecord()" style="text;html=1;align=center;verticalAlign=middle;resizable=0;points=[];autosize=1;strokeColor=none;fillColor=none;" vertex="1" parent="1">
          <mxGeometry x="520" y="466" width="130" height="30" as="geometry" />
        </mxCell>
        <mxCell id="vw6bsj8kWLU3OOpr5nJO-42" value="" style="endArrow=open;html=1;rounded=0;endFill=0;dashed=1;" edge="1" parent="1">
          <mxGeometry width="50" height="50" relative="1" as="geometry">
            <mxPoint x="360" y="520" as="sourcePoint" />
            <mxPoint x="200" y="520" as="targetPoint" />
          </mxGeometry>
        </mxCell>
        <mxCell id="vw6bsj8kWLU3OOpr5nJO-43" value="displayFinish()" style="text;html=1;align=center;verticalAlign=middle;resizable=0;points=[];autosize=1;strokeColor=none;fillColor=none;" vertex="1" parent="1">
          <mxGeometry x="230" y="493" width="100" height="30" as="geometry" />
        </mxCell>
        <mxCell id="vw6bsj8kWLU3OOpr5nJO-44" value="opt" style="shape=umlFrame;whiteSpace=wrap;html=1;pointerEvents=0;fillColor=none;" vertex="1" parent="1">
          <mxGeometry x="350" y="381" width="490" height="149" as="geometry" />
        </mxCell>
      </root>
    </mxGraphModel>
  </diagram>
</mxfile>
